<svg width="28" height="28" viewBox="0 0 28 28" fill="none" xmlns="http://www.w3.org/2000/svg">
<path opacity="1" d="M21.6667 1H5.66667C3.08934 1 1 3.08934 1 5.66667V21.6667C1 24.244 3.08934 26.3333 5.66667 26.3333H21.6667C24.244 26.3333 26.3333 24.244 26.3333 21.6667V5.66667C26.3333 3.08934 24.244 1 21.6667 1Z" stroke="white" stroke-width="1.5" stroke-miterlimit="10" stroke-linecap="round"/>
<path opacity="1" d="M6.69 19V17.215C7.28 16.635 7.825 16.095 8.325 15.595C8.535 15.385 8.75 15.17 8.97 14.95C9.19 14.73 9.395 14.525 9.585 14.335C9.775 14.145 9.945 13.975 10.095 13.825C10.245 13.665 10.36 13.54 10.44 13.45C10.6 13.26 10.74 13.09 10.86 12.94C10.99 12.79 11.09 12.645 11.16 12.505C11.24 12.355 11.3 12.21 11.34 12.07C11.38 11.92 11.4 11.76 11.4 11.59C11.4 11.26 11.27 10.975 11.01 10.735C10.75 10.485 10.395 10.36 9.945 10.36C9.495 10.36 9.145 10.49 8.895 10.75C8.645 11 8.475 11.285 8.385 11.605L6.6 10.87C6.68 10.6 6.81 10.325 6.99 10.045C7.17 9.755 7.4 9.5 7.68 9.28C7.96 9.05 8.29 8.865 8.67 8.725C9.06 8.575 9.495 8.5 9.975 8.5C10.495 8.5 10.965 8.58 11.385 8.74C11.805 8.89 12.16 9.1 12.45 9.37C12.74 9.64 12.965 9.96 13.125 10.33C13.285 10.69 13.365 11.08 13.365 11.5C13.365 12.14 13.205 12.73 12.885 13.27C12.575 13.8 12.195 14.295 11.745 14.755L10.455 16.045C10.115 16.385 9.73 16.765 9.3 17.185L9.36 17.275H13.515V19H6.69ZM18.4188 19.24C18.0288 19.24 17.6388 19.185 17.2488 19.075C16.8688 18.965 16.5138 18.795 16.1838 18.565C15.8538 18.335 15.5638 18.05 15.3138 17.71C15.0738 17.36 14.8938 16.945 14.7738 16.465L16.5588 15.775C16.6688 16.275 16.8788 16.675 17.1888 16.975C17.5088 17.275 17.9138 17.425 18.4038 17.425C18.6438 17.425 18.8638 17.385 19.0638 17.305C19.2738 17.215 19.4538 17.095 19.6038 16.945C19.7638 16.795 19.8838 16.62 19.9638 16.42C20.0538 16.21 20.0988 15.98 20.0988 15.73C20.0988 15.49 20.0538 15.27 19.9638 15.07C19.8838 14.86 19.7688 14.68 19.6188 14.53C19.4688 14.37 19.2888 14.25 19.0788 14.17C18.8788 14.08 18.6538 14.035 18.4038 14.035C18.0938 14.035 17.8188 14.105 17.5788 14.245C17.3388 14.375 17.1338 14.54 16.9638 14.74L15.0588 13.87L15.6588 8.74H21.4338V10.465H17.2938L16.9038 12.865L17.0238 12.895C17.2238 12.725 17.4688 12.58 17.7588 12.46C18.0488 12.34 18.3988 12.28 18.8088 12.28C19.2388 12.28 19.6488 12.365 20.0388 12.535C20.4288 12.695 20.7738 12.925 21.0738 13.225C21.3738 13.525 21.6138 13.89 21.7938 14.32C21.9738 14.74 22.0638 15.21 22.0638 15.73C22.0638 16.24 21.9738 16.71 21.7938 17.14C21.6138 17.57 21.3588 17.94 21.0288 18.25C20.7088 18.56 20.3238 18.805 19.8738 18.985C19.4338 19.155 18.9488 19.24 18.4188 19.24Z" fill="white"/>
</svg>
